<?xml version="1.0" standalone="no"?>
<!DOCTYPE svg PUBLIC "-//W3C//DTD SVG 20010904//EN"
 "http://www.w3.org/TR/2001/REC-SVG-20010904/DTD/svg10.dtd">
<svg version="1.0" xmlns="http://www.w3.org/2000/svg"
 width="50.000000pt" height="100.000000pt" viewBox="200 0 100.000000 1000.000000"
 preserveAspectRatio="xMidYMid meet">

<g transform="translate(0.000000,370.000000) scale(0.100000,-0.100000)"
fill="#000000" stroke="none">
<path d="M3023 3004 c-10 -4 -13 -114 -12 -502 l0 -497 49 254 c27 139 63 320
80 402 l33 148 50 3 51 3 28 73 c15 41 26 77 23 82 -11 18 -272 48 -302 34z"/>

<path d="M2800 2969 c-68 -19 -151 -52 -148 -60 2 -4 30 -60 63 -124 l60 -116
-27 -22 c-16 -13 -28 -26 -28 -30 0 -5 29 -88 64 -185 35 -97 92 -270 127
-384 35 -114 64 -206 65 -205 10 10 -62 605 -97 797 l-18 104 21 23 c20 21 20
25 8 118 -15 105 -14 104 -90 84z"/>
<path d="M2474 2808 c-69 -52 -134 -112 -134 -124 0 -7 34 -52 76 -101 114
-132 112 -128 79 -163 l-27 -29 95 -143 c130 -196 241 -388 354 -613 76 -151
94 -181 88 -145 -30 180 -174 558 -341 891 -62 125 -63 127 -44 144 11 10 20
23 20 29 0 12 -127 276 -133 276 -2 0 -17 -10 -33 -22z"/>
<path d="M3281 2599 c-81 -171 -221 -547 -221 -592 0 -6 42 57 93 141 50 83
130 206 177 272 131 186 125 160 58 227 l-57 57 -50 -105z"/>
<path d="M2218 2543 c-20 -23 -98 -151 -98 -161 0 -4 24 -26 53 -50 29 -23 66
-56 83 -73 l29 -31 -33 -27 -32 -28 101 -109 c223 -240 464 -566 619 -834 59
-104 70 -118 64 -85 -12 69 -73 234 -125 337 -97 194 -243 424 -425 669 -52
70 -94 131 -94 135 0 5 9 15 20 22 11 7 20 16 20 21 0 8 -158 231 -164 231 -2
0 -10 -8 -18 -17z"/>
<path d="M3458 2333 c-103 -101 -278 -291 -330 -358 -21 -28 -22 -29 -2 -15
12 8 143 97 292 196 l270 182 -52 51 c-28 28 -56 51 -60 51 -5 0 -58 -48 -118
-107z"/>
<path d="M2012 2138 c-17 -51 -38 -118 -45 -149 l-14 -57 97 -81 c125 -104
346 -325 467 -465 164 -191 355 -454 442 -608 18 -32 35 -58 38 -58 7 0 -7 58
-34 140 -95 284 -376 686 -742 1063 l-124 127 27 29 c33 34 29 45 -36 109
l-44 43 -32 -93z"/>
<path d="M3705 2161 c-194 -73 -523 -226 -512 -237 2 -2 52 10 111 27 179 49
587 139 635 139 3 0 -19 25 -49 55 -30 30 -61 55 -70 55 -8 0 -60 -18 -115
-39z"/>
<path d="M3725 1938 c-49 -5 -171 -19 -270 -31 l-180 -23 102 -12 c55 -6 135
-19 176 -28 73 -16 77 -18 105 -64 71 -114 232 -119 311 -10 31 44 48 112 37
155 -6 25 -8 25 -99 24 -50 -1 -132 -6 -182 -11z"/>
</g>
</svg>
