<?xml version="1.0" standalone="no"?>
<!DOCTYPE svg PUBLIC "-//W3C//DTD SVG 20010904//EN"
 "http://www.w3.org/TR/2001/REC-SVG-20010904/DTD/svg10.dtd">
<svg version="1.0" xmlns="http://www.w3.org/2000/svg"
 width="40.000000pt" height="52.000000pt" viewBox="0 0 389.000000 519.000000"
 preserveAspectRatio="xMidYMid meet">

<g transform="translate(0.000000,519.000000) scale(0.100000,-0.100000)"
fill="#000000" stroke="none">
<path d="M1773 4615 c-24 -7 -83 -34 -132 -59 -106 -55 -158 -69 -351 -96
-198 -27 -311 -60 -580 -167 l-95 -38 -3 -74 c-2 -41 -1 -80 2 -87 4 -9 58 6
207 57 253 87 343 112 545 154 197 40 254 66 348 158 38 38 77 74 87 80 9 7
24 29 32 50 19 43 13 45 -60 22z"/>
<path d="M2125 4566 l-99 -62 -73 -169 c-41 -92 -72 -169 -70 -171 2 -2 42 25
90 59 48 34 126 89 173 122 48 33 129 99 180 147 70 64 106 90 144 103 27 9
52 21 55 26 4 5 -56 9 -147 8 l-153 -1 -100 -62z"/>
<path d="M2765 4604 c-11 -8 -60 -38 -110 -66 -123 -69 -243 -156 -420 -303
-161 -135 -236 -179 -330 -196 -86 -15 -91 -17 -104 -45 -6 -15 -10 -28 -9
-29 9 -8 143 -25 192 -25 67 0 112 21 236 109 126 91 296 211 375 266 210 146
295 209 339 255 l49 50 -99 0 c-73 -1 -104 -5 -119 -16z"/>
<path d="M3164 4568 c-201 -143 -243 -187 -168 -175 21 4 73 33 132 75 53 38
109 77 125 87 15 9 27 26 27 36 0 33 -51 23 -116 -23z"/>
<path d="M645 4551 c-29 -6 -30 -9 -33 -64 -2 -34 1 -57 7 -57 6 0 54 29 108
65 l97 65 -74 -1 c-41 -1 -88 -4 -105 -8z"/>
<path d="M3215 4435 c-22 -7 -92 -30 -155 -50 -255 -82 -429 -189 -813 -497
-65 -52 -123 -90 -141 -93 -17 -3 -75 3 -130 15 -109 22 -178 25 -224 9 -25
-8 -35 -23 -58 -77 -15 -37 -31 -71 -36 -76 -15 -18 -8 -27 15 -21 12 4 62 25
111 48 120 54 147 53 284 -12 121 -57 144 -60 247 -32 39 11 192 47 340 80
149 34 306 71 350 84 l80 23 44 102 c25 56 42 104 39 107 -8 8 -261 -41 -447
-85 -90 -22 -165 -40 -167 -40 -2 0 -1 7 2 15 3 8 35 35 71 61 237 169 438
282 576 325 l77 24 0 52 c0 58 -1 59 -65 38z"/>
<path d="M3175 4239 c-38 -17 -87 -37 -108 -44 -80 -30 -205 -97 -228 -122
-14 -16 -18 -24 -9 -21 8 3 101 33 205 68 105 34 193 65 197 69 4 3 14 23 23
44 19 46 14 46 -80 6z"/>
<path d="M1275 4188 c-33 -10 -157 -42 -275 -69 -195 -46 -250 -66 -250 -91 0
-18 117 -6 274 27 162 34 164 35 242 90 107 77 107 75 9 43z"/>
<path d="M740 3951 c-30 -4 -72 -11 -92 -15 l-38 -7 0 -54 0 -54 73 -3 72 -3
-72 -23 -73 -23 0 -45 c0 -31 4 -44 14 -44 33 0 342 111 354 127 34 46 80 133
72 138 -15 9 -253 14 -310 6z"/>
<path d="M2870 3710 c-50 -5 -131 -26 -241 -64 -92 -31 -182 -56 -200 -56 -36
0 -103 -17 -179 -45 -54 -20 -103 -16 -252 20 -57 14 -130 25 -163 25 -55 0
-168 -14 -206 -26 -15 -4 -64 -102 -56 -111 2 -2 24 4 48 12 82 29 237 65 282
65 53 0 76 -19 49 -42 -41 -36 -123 -74 -279 -129 -91 -32 -167 -60 -168 -61
-12 -15 -35 -71 -31 -76 9 -8 319 95 428 143 108 48 118 51 244 65 50 5 111
19 135 29 24 11 81 25 127 31 98 13 92 11 209 61 92 40 185 60 196 42 9 -15
-237 -122 -353 -153 -160 -43 -209 -65 -306 -132 -112 -78 -186 -112 -305
-142 -124 -32 -230 -46 -339 -46 l-88 0 -12 -30 c-7 -17 -10 -34 -6 -37 10
-11 293 -7 397 5 130 16 267 52 401 107 62 25 194 78 293 116 99 39 238 100
310 137 l130 67 47 110 c27 60 48 113 48 117 0 9 -52 8 -160 -2z"/>
<path d="M763 3596 c-67 -23 -124 -44 -128 -48 -13 -13 17 -50 52 -64 34 -15
39 -14 114 16 44 18 79 33 79 34 0 0 9 25 20 54 25 64 29 64 -137 8z"/>
<path d="M2829 3286 c-2 -2 -74 -22 -159 -45 -229 -60 -283 -80 -496 -191
-326 -170 -388 -182 -644 -131 -85 17 -161 31 -168 31 -11 0 -62 -99 -62 -120
0 -4 21 -11 48 -14 91 -13 113 -19 105 -26 -9 -9 -124 -46 -169 -55 -27 -5
-35 -15 -53 -57 -12 -28 -19 -53 -16 -56 7 -7 187 36 299 73 55 18 211 76 345
129 232 92 386 143 759 254 l164 49 33 76 c18 42 30 79 26 82 -5 2 -10 3 -12
1z"/>
<path d="M2590 2950 c-161 -54 -461 -148 -683 -214 -104 -31 -219 -68 -255
-82 -62 -23 -132 -75 -132 -97 0 -11 179 -2 267 14 32 6 141 30 243 54 102 24
273 60 380 80 107 20 200 42 207 48 9 10 103 221 103 233 0 7 -10 4 -130 -36z"/>
<path d="M2445 2548 c-137 -44 -195 -55 -387 -77 -98 -11 -284 -38 -415 -60
-259 -44 -456 -71 -514 -71 -20 0 -41 -6 -46 -12 -12 -17 -83 -177 -83 -188 0
-5 60 11 133 35 286 93 329 105 527 144 384 75 549 100 666 100 61 0 122 5
136 10 17 6 32 28 52 75 16 37 27 68 25 70 -2 1 -44 -10 -94 -26z"/>
<path d="M1226 2546 c-47 -9 -61 -16 -67 -34 -7 -20 -6 -22 9 -18 9 3 55 10
101 15 83 9 109 20 97 40 -9 13 -61 12 -140 -3z"/>
<path d="M2270 2259 c-30 -4 -172 -7 -315 -7 -260 2 -321 -4 -465 -39 -96 -23
-218 -89 -199 -107 5 -5 74 7 254 44 229 47 251 48 375 11 93 -29 123 -33 265
-38 l161 -6 29 69 c17 37 32 72 33 76 4 10 -63 8 -138 -3z"/>
<path d="M1915 2039 c-49 -4 -164 -12 -255 -18 -91 -6 -246 -18 -345 -27 -99
-8 -226 -14 -282 -12 -64 2 -104 0 -107 -7 -3 -5 -20 -47 -39 -92 -42 -99 -59
-92 164 -62 280 37 958 156 1074 188 l30 8 -37 17 c-40 17 -61 18 -203 5z"/>
<path d="M2175 1926 c-78 -31 -231 -74 -405 -115 -47 -11 -148 -25 -225 -31
-93 -8 -145 -16 -154 -25 -20 -19 -20 -19 189 -41 318 -34 413 -25 530 52 30
20 67 42 83 50 34 18 97 147 70 143 -5 -1 -44 -15 -88 -33z"/>
<path d="M3217 1819 c-33 -10 -99 -24 -149 -30 l-89 -12 -38 -81 c-21 -45 -55
-108 -75 -140 -20 -32 -35 -61 -32 -63 10 -11 117 40 184 87 98 69 110 73 192
79 l75 6 3 88 c1 48 -1 87 -5 86 -4 -1 -34 -9 -66 -20z"/>
<path d="M2025 1654 c-120 -32 -274 -54 -371 -54 -44 0 -158 9 -254 20 -225
25 -376 26 -515 0 -59 -10 -113 -24 -118 -29 -10 -10 -107 -224 -103 -228 0 0
57 14 126 33 225 62 318 74 630 85 320 11 438 25 589 71 103 32 103 32 122 76
11 24 19 46 19 48 0 8 -35 2 -125 -22z"/>
<path d="M3240 1513 c-149 -54 -237 -91 -400 -165 -116 -54 -232 -99 -288
-114 -52 -14 -102 -28 -111 -33 -27 -15 -162 -58 -238 -76 -47 -11 -73 -23
-73 -31 0 -19 213 -19 363 1 172 23 273 55 442 142 83 42 195 95 250 118 l100
42 3 61 c3 65 -3 71 -48 55z"/>
<path d="M1845 1439 c-244 -42 -476 -70 -625 -75 -157 -6 -220 -12 -220 -23 0
-15 112 -31 214 -31 56 0 258 16 449 35 191 19 351 35 355 35 5 0 14 17 22 38
8 20 16 40 18 45 6 11 -41 6 -213 -24z"/>
<path d="M3055 1228 c-82 -38 -195 -88 -250 -109 -95 -37 -390 -115 -599 -158
-54 -12 -113 -30 -130 -41 -30 -18 -63 -67 -53 -77 4 -4 123 26 242 62 28 8
165 43 306 79 141 36 283 76 315 89 32 13 110 56 172 96 62 39 129 78 148 86
35 15 47 46 17 44 -10 0 -85 -32 -168 -71z"/>
<path d="M1035 1200 c-55 -5 -170 -14 -255 -20 -214 -15 -204 -12 -229 -70
-19 -44 -28 -100 -16 -100 2 0 29 11 59 24 139 62 292 75 863 78 l452 1 16 40
c9 22 14 42 11 44 -9 9 -803 12 -901 3z"/>
<path d="M3208 1186 c-31 -13 -91 -44 -135 -69 -106 -63 -156 -83 -265 -111
-51 -13 -131 -38 -178 -55 -47 -17 -137 -43 -200 -57 -63 -14 -135 -37 -160
-50 l-45 -23 72 -1 c43 0 103 8 145 20 40 11 134 26 208 34 185 21 303 47 485
106 l155 51 0 90 c0 65 -3 89 -12 89 -7 0 -38 -11 -70 -24z"/>
<path d="M1305 979 c-33 -4 -141 -26 -240 -48 -141 -32 -201 -41 -275 -41 -52
0 -132 -3 -177 -7 l-83 -6 0 -43 0 -44 68 -1 c145 -3 778 4 970 10 l204 6 30
70 c16 39 34 80 39 93 l9 22 -243 -1 c-133 -1 -269 -5 -302 -10z"/>
<path d="M3198 956 c-35 -19 -94 -52 -132 -74 l-69 -41 74 6 c55 4 92 14 147
40 69 33 72 36 72 69 0 43 -11 43 -92 0z"/>
</g>
</svg>
